<svg width="18" height="6" viewBox="0 0 18 6" fill="none" xmlns="http://www.w3.org/2000/svg">
<path d="M17.9605 3.13875C18.1248 3.35533 17.7396 3.62537 17.4861 3.49991C16.492 3.00788 14.6603 2.41276 11.4295 2.19898C11.5402 2.50357 11.6007 2.83285 11.6007 3.17647C11.6007 4.73586 10.3559 6 8.82032 6C7.28479 6 6.03999 4.73586 6.03999 3.17647C6.03999 2.83319 6.10031 2.50422 6.21078 2.1999C3.24786 2.39937 1.54392 2.9269 0.586098 3.39491C0.327199 3.52141 -0.129007 3.22422 0.034547 3.00128C0.951792 1.75102 3.23366 0 8.8203 0C14.615 0 17.0087 1.88385 17.9605 3.13875Z" fill="#0071A1"/>
</svg>
